<svg xmlns="http://www.w3.org/2000/svg" viewBox="0 0 64 64"><g transform="translate(32 32)"><path d="M0-7C6-12 6-22 0-30C-6-22-6-12 0-7Z" fill="#1b1814" transform="rotate(0)"/><path d="M0-7C6-12 6-22 0-30C-6-22-6-12 0-7Z" fill="#d52b3a" transform="rotate(45)"/><path d="M0-7C6-12 6-22 0-30C-6-22-6-12 0-7Z" fill="#1b1814" transform="rotate(90)"/><path d="M0-7C6-12 6-22 0-30C-6-22-6-12 0-7Z" fill="#d52b3a" transform="rotate(135)"/><path d="M0-7C6-12 6-22 0-30C-6-22-6-12 0-7Z" fill="#1b1814" transform="rotate(180)"/><path d="M0-7C6-12 6-22 0-30C-6-22-6-12 0-7Z" fill="#d52b3a" transform="rotate(225)"/><path d="M0-7C6-12 6-22 0-30C-6-22-6-12 0-7Z" fill="#1b1814" transform="rotate(270)"/><path d="M0-7C6-12 6-22 0-30C-6-22-6-12 0-7Z" fill="#d52b3a" transform="rotate(315)"/><circle r="7" fill="#d52b3a"/><circle r="2.6" fill="#ffffff"/></g></svg>
